<svg width="50" height="50" viewBox="0 0 50 50" fill="none" xmlns="http://www.w3.org/2000/svg">
<path d="M20.8334 45.8333C14.9408 45.8333 11.9945 45.8333 10.164 44.0027C8.33337 42.172 8.33337 39.2258 8.33337 33.3333V16.6666C8.33337 10.7741 8.33337 7.82779 10.164 5.99721C11.9945 4.16663 14.9408 4.16663 20.8334 4.16663H29.1667C35.0592 4.16663 38.0055 4.16663 39.8361 5.99721C41.6667 7.82779 41.6667 10.7741 41.6667 16.6666M29.1667 45.8333C35.0592 45.8333 38.0055 45.8333 39.8361 44.0027C41.6667 42.172 41.6667 39.2258 41.6667 33.3333V25" stroke="black" stroke-width="5" stroke-linecap="round"/>
<path d="M41.4538 33.3334H16.4537C14.5163 33.3334 13.5476 33.3334 12.7528 33.5463C10.596 34.1242 8.91129 35.809 8.33337 37.9657" stroke="black" stroke-width="5"/>
<path d="M14.5834 33.3334V18.75M14.5834 5.20837V10.4167" stroke="black" stroke-width="5" stroke-linecap="round"/>
<path d="M27.0833 33.3334V40.6894C27.0833 41.2636 27.0833 41.5507 26.8856 41.6667C26.6881 41.7827 26.4179 41.6544 25.8773 41.3975L23.2894 40.1684C23.1065 40.0815 23.015 40.038 22.9167 40.038C22.8183 40.038 22.7269 40.0815 22.544 40.1684L19.956 41.3975C19.4155 41.6544 19.1452 41.7827 18.9476 41.6667C18.75 41.5507 18.75 41.2636 18.75 40.6894V34.2709" stroke="black" stroke-width="5" stroke-linecap="round"/>
</svg>
