<svg width="25" height="25" viewBox="0 0 25 25" fill="none" xmlns="http://www.w3.org/2000/svg">
<path d="M6.92325 17.1986H12.4998H18.0768V15.7178H12.4998H6.92325V17.1986Z" fill="#7CA243"/>
<path d="M13.4085 17.6619H11.5911C11.5911 18.5635 11.1676 21.273 9.26068 22.1631C9.70541 22.7985 10.5955 23.1166 11.2946 22.9892C11.2946 22.9892 11.4313 24.4849 12.4998 25C13.5683 24.485 13.705 22.9892 13.705 22.9892C14.4041 23.1166 15.2942 22.7985 15.7389 22.1631C13.832 21.273 13.4085 18.5635 13.4085 17.6619Z" fill="#7CA243"/>
<path d="M8.67187 15.2238H10.4581C10.4581 15.2238 10.4711 8.69905 6.15683 7.92474C1.72031 7.12845 -0.517291 12.692 2.34306 14.9802C2.66518 11.2637 8.50878 11.6752 8.67187 15.2238Z" fill="#7CA243"/>
<path d="M8.7378 17.6504C8.58511 18.7309 7.56797 19.3029 6.67823 19.3029C5.72481 19.3029 5.02574 18.3491 4.77134 17.9044C3.69048 19.4936 4.17427 21.1141 5.85176 21.6549C7.82237 22.2902 10.3646 20.2567 10.3646 17.6504H8.7378Z" fill="#7CA243"/>
<path d="M18.8432 7.92474C14.5288 8.69905 14.5419 15.2238 14.5419 15.2238H16.3281C16.4912 11.6752 22.3348 11.2637 22.657 14.9802C25.5173 12.692 23.2797 7.12845 18.8432 7.92474Z" fill="#7CA243"/>
<path d="M18.3218 19.3027C17.432 19.3027 16.4149 18.7306 16.2622 17.6501H14.6354C14.6354 20.2565 17.1777 22.29 19.1482 21.6546C20.8257 21.1138 21.3095 19.4934 20.2287 17.9042C19.9743 18.3489 19.2752 19.3027 18.3218 19.3027Z" fill="#7CA243"/>
<path d="M13.4663 15.2238C13.4663 10.7218 15.8126 8.34561 15.8126 5.3188C15.8126 2.62827 13.8946 0.728516 12.5002 0C11.1057 0.728516 9.18768 2.62832 9.18768 5.3188C9.18768 8.34561 11.5341 10.7218 11.5341 15.2238C11.5341 15.2238 13.4659 15.2238 13.4663 15.2238Z" fill="#7CA243"/>
</svg>
