<svg width="30" height="30" viewBox="0 0 30 30" fill="none" xmlns="http://www.w3.org/2000/svg">
<path d="M15 6.8758L14.3245 7.52592C14.5012 7.70955 14.7451 7.8133 15 7.8133C15.2549 7.8133 15.4987 7.70955 15.6755 7.52592L15 6.8758ZM11.7826 22.9024C9.88799 21.4089 7.81634 19.9504 6.17286 18.0998C4.56152 16.2853 3.4375 14.1681 3.4375 11.4214H1.5625C1.5625 14.7533 2.95062 17.2951 4.7709 19.3448C6.55904 21.3583 8.83846 22.969 10.6218 24.3749L11.7826 22.9024ZM3.4375 11.4214C3.4375 8.7328 4.95671 6.47816 7.03045 5.53025C9.04509 4.60936 11.7521 4.85324 14.3245 7.52592L15.6755 6.22567C12.6231 3.05441 9.08011 2.53175 6.25095 3.82496C3.48089 5.09116 1.5625 8.0313 1.5625 11.4214H3.4375ZM10.6218 24.3749C11.2621 24.8796 11.9494 25.4179 12.646 25.8249C13.3424 26.2318 14.137 26.5625 15 26.5625V24.6875C14.613 24.6875 14.1576 24.5366 13.592 24.206C13.0266 23.8756 12.4401 23.4208 11.7826 22.9024L10.6218 24.3749ZM19.3782 24.3749C21.1615 22.969 23.441 21.3583 25.2291 19.3448C27.0494 17.2951 28.4375 14.7533 28.4375 11.4214H26.5625C26.5625 14.1681 25.4385 16.2853 23.8271 18.0998C22.1836 19.9504 20.112 21.4089 18.2175 22.9024L19.3782 24.3749ZM28.4375 11.4214C28.4375 8.0313 26.5191 5.09116 23.749 3.82496C20.9199 2.53175 17.3769 3.05441 14.3245 6.22567L15.6755 7.52592C18.2479 4.85324 20.9549 4.60936 22.9695 5.53025C25.0432 6.47816 26.5625 8.7328 26.5625 11.4214H28.4375ZM18.2175 22.9024C17.5599 23.4208 16.9734 23.8756 16.408 24.206C15.8424 24.5366 15.387 24.6875 15 24.6875V26.5625C15.863 26.5625 16.6576 26.2318 17.354 25.8249C18.0506 25.4179 18.7379 24.8796 19.3782 24.3749L18.2175 22.9024Z" fill="#7CA243"/>
</svg>
