<svg width="30" height="30" viewBox="0 0 30 30" fill="none" xmlns="http://www.w3.org/2000/svg">
<path d="M19.1672 4.6875H10.8319C9.20267 4.68874 7.64054 5.33649 6.48852 6.48852C5.33649 7.64054 4.68874 9.20267 4.6875 10.8319V19.1672C4.68849 20.7966 5.33613 22.3589 6.48819 23.5112C7.64024 24.6634 9.2025 25.3113 10.8319 25.3125H19.1672C20.7965 25.311 22.3586 24.6631 23.5106 23.5109C24.6626 22.3587 25.3103 20.7965 25.3116 19.1672V10.8319C25.3108 9.20251 24.6632 7.6401 23.5111 6.48797C22.359 5.33584 20.7965 4.68825 19.1672 4.6875ZM23.2378 19.1672C23.2376 20.2467 22.8086 21.2819 22.0453 22.0453C21.2819 22.8086 20.2467 23.2376 19.1672 23.2378H10.8319C10.2974 23.2378 9.76807 23.1325 9.27426 22.9279C8.78044 22.7234 8.33176 22.4235 7.95384 22.0455C7.57592 21.6675 7.27617 21.2187 7.0717 20.7249C6.86724 20.231 6.76206 19.7017 6.76219 19.1672V10.8319C6.76206 10.2974 6.86725 9.76814 7.07172 9.27433C7.2762 8.78051 7.57597 8.33183 7.9539 7.9539C8.33183 7.57597 8.78051 7.2762 9.27433 7.07172C9.76814 6.86725 10.2974 6.76206 10.8319 6.76219H19.1672C20.2465 6.76244 21.2815 7.19129 22.0446 7.95445C22.8078 8.71761 23.2366 9.7526 23.2369 10.8319L23.2378 19.1672Z" fill="white"/>
<path d="M15 9.66751C12.0581 9.66751 9.66748 12.0591 9.66748 15C9.66748 17.941 12.059 20.3325 15 20.3325C17.9409 20.3325 20.3325 17.941 20.3325 15C20.3325 12.0591 17.9419 9.66751 15 9.66751ZM15 18.2578C14.136 18.258 13.3073 17.9148 12.6962 17.304C12.0852 16.6931 11.7418 15.8645 11.7417 15.0005C11.7416 14.1365 12.0847 13.3078 12.6956 12.6967C13.3064 12.0857 14.135 11.7423 14.999 11.7422C15.8631 11.7421 16.6918 12.0852 17.3028 12.6961C17.9138 13.3069 18.2572 14.1355 18.2573 14.9995C18.2574 15.8636 17.9143 16.6923 17.3035 17.3033C16.6926 17.9143 15.864 18.2577 15 18.2578ZM20.3437 8.42908C20.5964 8.42926 20.8433 8.50434 21.0533 8.64482C21.2633 8.7853 21.4269 8.98487 21.5235 9.21832C21.6201 9.45178 21.6453 9.70862 21.596 9.95641C21.5467 10.2042 21.425 10.4318 21.2463 10.6104C21.0677 10.7891 20.8401 10.9108 20.5923 10.9601C20.3445 11.0094 20.0877 10.9842 19.8542 10.8876C19.6208 10.791 19.4212 10.6274 19.2807 10.4174C19.1402 10.2074 19.0652 9.96047 19.065 9.70783C19.065 9.00283 19.5431 8.42908 20.3437 8.42908Z" fill="white"/>
</svg>
