<svg width="55" height="55" viewBox="0 0 55 55" fill="none" xmlns="http://www.w3.org/2000/svg">
<path d="M48.125 36.6666V16.5C48.125 13.9331 48.125 12.6496 47.6254 11.6692C47.1861 10.8067 46.4848 10.1056 45.6225 9.66619C44.6421 9.16663 43.3585 9.16663 40.7916 9.16663H14.2083C11.6414 9.16663 10.3579 9.16663 9.37753 9.66619C8.5151 10.1056 7.81394 10.8067 7.37454 11.6692C6.87498 12.6496 6.87498 13.9331 6.87498 16.5V36.6666M10.6944 45.8333H44.3055C45.7263 45.8333 46.4367 45.8333 47.0195 45.6772C48.6012 45.2533 49.8366 44.0178 50.2606 42.4361C50.4166 41.8534 50.4166 41.1429 50.4166 39.7221C50.4166 39.0117 50.4166 38.6565 50.3385 38.3652C50.1267 37.5744 49.5089 36.9565 48.7181 36.7448C48.4268 36.6666 48.0716 36.6666 47.3612 36.6666H7.63886C6.92847 36.6666 6.57328 36.6666 6.28185 36.7448C5.49102 36.9565 4.8733 37.5744 4.66139 38.3652C4.58331 38.6565 4.58331 39.0117 4.58331 39.7221C4.58331 41.1429 4.58331 41.8534 4.73949 42.4361C5.16329 44.0178 6.39873 45.2533 7.98039 45.6772C8.56323 45.8333 9.27364 45.8333 10.6944 45.8333Z" stroke="black" stroke-width="5" stroke-linecap="round" stroke-linejoin="round"/>
</svg>
