<svg width="26" height="26" viewBox="0 0 26 26" fill="none" xmlns="http://www.w3.org/2000/svg">
<path d="M3.25 8.66663L9.15408 12.6027C10.544 13.5293 11.239 13.9926 11.9901 14.1727C12.654 14.3317 13.346 14.3317 14.0099 14.1727C14.761 13.9926 15.456 13.5293 16.8459 12.6027L22.75 8.66663M6.71667 20.5833H19.2833C20.4968 20.5833 21.1036 20.5833 21.567 20.3471C21.9747 20.1395 22.3062 19.808 22.5138 19.4003C22.75 18.9368 22.75 18.3301 22.75 17.1166V8.88329C22.75 7.66985 22.75 7.06312 22.5138 6.59965C22.3062 6.19196 21.9747 5.8605 21.567 5.65278C21.1036 5.41663 20.4968 5.41663 19.2833 5.41663H6.71667C5.50322 5.41663 4.89649 5.41663 4.43302 5.65278C4.02533 5.8605 3.69387 6.19196 3.48616 6.59965C3.25 7.06312 3.25 7.66984 3.25 8.88329V17.1166C3.25 18.3301 3.25 18.9368 3.48616 19.4003C3.69387 19.808 4.02533 20.1395 4.43302 20.3471C4.89649 20.5833 5.50321 20.5833 6.71667 20.5833Z" stroke="white" stroke-width="2" stroke-linecap="round" stroke-linejoin="round"/>
</svg>
