<svg width="30" height="30" viewBox="0 0 30 30" fill="none" xmlns="http://www.w3.org/2000/svg">
<path fill-rule="evenodd" clip-rule="evenodd" d="M4.375 10C4.37525 8.81493 4.68184 7.65001 5.26502 6.61832C5.84821 5.58663 6.68818 4.72322 7.70342 4.11186C8.71867 3.50051 9.87471 3.16197 11.0594 3.12911C12.244 3.09625 13.417 3.37017 14.4646 3.92431C15.5122 4.47844 16.3987 5.29396 17.0382 6.29173C17.6777 7.2895 18.0484 8.43563 18.1143 9.6189C18.1803 10.8022 17.9392 11.9824 17.4146 13.045C16.8899 14.1077 16.0995 15.0167 15.12 15.6838C17.2294 16.4574 19.059 17.8447 20.3733 19.6669C21.6876 21.4892 22.4266 23.663 22.495 25.9088C22.4987 26.0319 22.4781 26.1545 22.4344 26.2697C22.3907 26.3848 22.3247 26.4903 22.2403 26.5799C22.0698 26.761 21.8343 26.8669 21.5856 26.8744C21.337 26.8819 21.0956 26.7902 20.9145 26.6197C20.7334 26.4492 20.6275 26.2137 20.62 25.965C20.5456 23.5294 19.5257 21.2184 17.7765 19.5218C16.0273 17.8252 13.6862 16.8764 11.2494 16.8764C8.81256 16.8764 6.47149 17.8252 4.72229 19.5218C2.97308 21.2184 1.95319 23.5294 1.87875 25.965C1.86624 26.2098 1.75835 26.44 1.5782 26.6062C1.39805 26.7724 1.15997 26.8615 0.914968 26.8543C0.669962 26.8471 0.437516 26.7442 0.267428 26.5677C0.0973395 26.3912 0.00313699 26.1551 0.00500152 25.91C0.0731907 23.6641 0.81201 21.4899 2.12636 19.6674C3.44071 17.8449 5.27043 16.4575 7.38 15.6838C6.45339 15.0535 5.6951 14.206 5.1713 13.2153C4.64751 12.2246 4.37412 11.1207 4.375 10ZM11.25 5.00003C9.92392 5.00003 8.65215 5.52682 7.71447 6.4645C6.77679 7.40218 6.25 8.67395 6.25 10C6.25 11.3261 6.77679 12.5979 7.71447 13.5356C8.65215 14.4732 9.92392 15 11.25 15C12.5761 15 13.8479 14.4732 14.7855 13.5356C15.7232 12.5979 16.25 11.3261 16.25 10C16.25 8.67395 15.7232 7.40218 14.7855 6.4645C13.8479 5.52682 12.5761 5.00003 11.25 5.00003Z" fill="#7CA243"/>
<path d="M21.6125 10C21.4275 10 21.2475 10.0125 21.07 10.0375C20.9461 10.0597 20.819 10.0567 20.6962 10.0287C20.5735 10.0007 20.4576 9.94828 20.3556 9.87453C20.2536 9.80078 20.1674 9.70723 20.1023 9.59947C20.0372 9.49171 19.9945 9.37194 19.9767 9.24731C19.9589 9.12267 19.9664 8.99573 19.9987 8.87405C20.031 8.75237 20.0875 8.63845 20.1648 8.53908C20.2421 8.43971 20.3387 8.35693 20.4486 8.29567C20.5586 8.23442 20.6798 8.19594 20.805 8.18255C22.0482 8.0028 23.3159 8.24154 24.4086 8.8612C25.5013 9.48086 26.3569 10.4463 26.8408 11.6055C27.3247 12.7647 27.4094 14.0519 27.0816 15.2645C26.7538 16.4771 26.0321 17.5463 25.03 18.3038C26.503 18.9634 27.7537 20.0351 28.6311 21.3896C29.5086 22.7441 29.9753 24.3236 29.975 25.9375C29.975 26.1862 29.8763 26.4246 29.7004 26.6005C29.5246 26.7763 29.2862 26.875 29.0375 26.875C28.7889 26.875 28.5504 26.7763 28.3746 26.6005C28.1988 26.4246 28.1 26.1862 28.1 25.9375C28.0999 24.5427 27.6505 23.1851 26.8183 22.0656C25.9862 20.9462 24.8156 20.1246 23.48 19.7225L22.8125 19.5225V17.4275L23.325 17.1663C24.0847 16.7815 24.6926 16.1519 25.0504 15.3791C25.4083 14.6063 25.4952 13.7355 25.2973 12.9072C25.0994 12.079 24.6281 11.3416 23.9595 10.8141C23.2909 10.2866 22.4641 9.99982 21.6125 10Z" fill="#7CA243"/>
</svg>
