<svg width="50" height="50" viewBox="0 0 50 50" fill="none" xmlns="http://www.w3.org/2000/svg">
<g clip-path="url(#clip0_54_13)">
<path d="M25.5288 6.25731C25.3532 6.25244 25.1769 6.25 25 6.25C14.6447 6.25 6.25 14.6447 6.25 25C6.25 35.3553 14.6447 43.75 25 43.75C35.3553 43.75 43.75 35.3553 43.75 25C43.75 24.8231 43.7475 24.6468 43.7428 24.4712L49.2631 18.9507C49.7444 20.8877 50 22.914 50 25C50 38.8072 38.8072 50 25 50C11.1929 50 0 38.8072 0 25C0 11.1929 11.1929 0 25 0C27.086 0 29.1123 0.255477 31.0493 0.736847L25.5288 6.25731Z" fill="black"/>
<path d="M12.5 24.9999C12.5 19.1754 16.4837 14.2813 21.875 12.8937V19.586C20.0069 20.6666 18.75 22.6865 18.75 24.9999C18.75 28.4516 21.5482 31.2499 25 31.2499C27.3134 31.2499 29.3332 29.993 30.4139 28.1249H37.1062C35.7184 33.5162 30.8245 37.5 25 37.5C18.0964 37.5 12.5 31.9034 12.5 24.9999Z" fill="black"/>
<path d="M43.75 6.25L40.625 0L31.25 9.375V14.3306L24.3528 21.2278L28.7722 25.6472L35.6694 18.75H40.625L50 9.375L43.75 6.25Z" fill="black"/>
</g>
<defs>
<clipPath id="clip0_54_13">
<rect width="50" height="50" fill="white"/>
</clipPath>
</defs>
</svg>
