<svg width="22" height="22" viewBox="0 0 22 22" fill="none" xmlns="http://www.w3.org/2000/svg">
<g clip-path="url(#clip0_42_126)">
<path d="M5.51284 7.33895C5.61758 6.51053 6.69421 5.38463 7.54864 5.50956L7.54728 5.5082C8.3788 5.66621 9.03704 7.09739 9.40821 7.74093C9.6712 8.20785 9.50043 8.68092 9.25513 8.88055C8.92421 9.14726 8.40674 9.51527 8.51531 9.88478C8.70833 10.5417 11 12.8333 12.1271 13.4848C12.5538 13.7314 12.8631 13.081 13.1273 12.7478C13.3193 12.4915 13.7927 12.3383 14.2586 12.5913C14.9543 12.9965 15.6097 13.4674 16.2158 13.9975C16.5185 14.2505 16.5896 14.6244 16.3798 15.0196C16.0104 15.7156 14.9419 16.6335 14.1664 16.4469C12.8117 16.1212 7.33333 13.9975 5.57364 7.84484C5.47467 7.55377 5.49959 7.44374 5.51284 7.33895Z" fill="white"/>
<path fill-rule="evenodd" clip-rule="evenodd" d="M11 21.0833C9.87833 21.0833 9.25774 20.9629 8.24996 20.625L6.31985 21.59C5.10086 22.1995 3.66663 21.3131 3.66663 19.9502V17.875C1.69263 16.0343 0.916626 13.9119 0.916626 11C0.916626 5.43109 5.43109 0.916626 11 0.916626C16.5688 0.916626 21.0833 5.43109 21.0833 11C21.0833 16.5688 16.5688 21.0833 11 21.0833ZM5.49996 17.0777L4.91691 16.5341C3.38326 15.1041 2.74996 13.5053 2.74996 11C2.74996 6.44361 6.44361 2.74996 11 2.74996C15.5563 2.74996 19.25 6.44361 19.25 11C19.25 15.5563 15.5563 19.25 11 19.25C10.0964 19.25 9.67263 19.1684 8.83291 18.8868L8.11106 18.6447L5.49996 19.9502V17.0777Z" fill="white"/>
</g>
<defs>
<clipPath id="clip0_42_126">
<rect width="22" height="22" fill="white"/>
</clipPath>
</defs>
</svg>
